<svg xmlns="http://www.w3.org/2000/svg" viewBox="0 0 100 100"><rect width="100" height="100" rx="22" fill="#12171e"/><circle cx="50" cy="50" r="35" fill="#f6f2e8"/><path d="M 28 25 Q 46 50 28 75" fill="none" stroke="#ff6b2c" stroke-width="4.5" stroke-linecap="round"/><path d="M 72 25 Q 54 50 72 75" fill="none" stroke="#ff6b2c" stroke-width="4.5" stroke-linecap="round"/><path d="M 31 32 l 5 2 M 30 41 l 6 1 M 30 50 l 6 0 M 30 59 l 6 -1 M 31 68 l 5 -2" stroke="#c9553e" stroke-width="2.2" stroke-linecap="round"/><path d="M 69 32 l -5 2 M 70 41 l -6 1 M 70 50 l -6 0 M 70 59 l -6 -1 M 69 68 l -5 -2" stroke="#c9553e" stroke-width="2.2" stroke-linecap="round"/><text x="50" y="52" text-anchor="middle" dominant-baseline="central" font-family="Arial, Helvetica, sans-serif" font-size="33" font-weight="900" fill="#12171e">9</text></svg>
